<?xml version="1.0" encoding="utf-8"?><!-- Uploaded to: SVG Repo, www.svgrepo.com, Generator: SVG Repo Mixer Tools -->
<svg fill="#000000" width="800px" height="800px" viewBox="0 0 24 24" id="apple" data-name="Flat Line" xmlns="http://www.w3.org/2000/svg" class="icon flat-line"><path id="secondary" d="M16,12a3,3,0,0,1,1.82-2.76A2.93,2.93,0,0,0,15.5,8a3.9,3.9,0,0,0-2.12.68,2.48,2.48,0,0,1-2.76,0A3.9,3.9,0,0,0,8.5,8C6.18,8,4.72,10.9,5,14c.28,2.58,1.77,7,4.26,7,1.27,0,1.33-1,2.7-1s1.43,1,2.7,1c2.2,0,3.61-3.44,4.11-6A3,3,0,0,1,16,12Z" style="fill: rgb(44, 169, 188); stroke-width: 2;"></path><path id="primary" d="M15.23,2.81A1.61,1.61,0,0,1,14.85,4a2.11,2.11,0,0,1-1.36.54A2.09,2.09,0,0,1,13.9,3.3,2,2,0,0,1,15.23,2.81ZM16,12a3,3,0,0,1,1.82-2.76A2.93,2.93,0,0,0,15.5,8a3.9,3.9,0,0,0-2.12.68,2.48,2.48,0,0,1-2.76,0A3.9,3.9,0,0,0,8.5,8C6.18,8,4.72,10.9,5,14c.28,2.58,1.77,7,4.26,7,1.27,0,1.33-1,2.7-1s1.43,1,2.7,1c2.2,0,3.61-3.44,4.11-6A3,3,0,0,1,16,12Z" style="fill: none; stroke: rgb(0, 0, 0); stroke-linecap: round; stroke-linejoin: round; stroke-width: 2;"></path></svg>